<svg width="65" height="83" viewBox="0 0 65 83" fill="none" xmlns="http://www.w3.org/2000/svg">
<path d="M58.1445 0H43.1228C39.6194 0 36.7692 2.85021 36.7692 6.35355V21.3754C36.7692 24.8788 39.6194 27.729 43.1228 27.729H58.1445C61.648 27.729 64.4982 24.8788 64.4982 21.3754V6.35355C64.4984 2.85021 61.6482 0 58.1445 0ZM59.6351 21.3754C59.6351 22.1971 58.9664 22.8657 58.1446 22.8657H43.1229C42.3012 22.8657 41.6327 22.1971 41.6327 21.3754V6.35355C41.6327 5.53182 42.3012 4.86328 43.1229 4.86328H58.1446C58.9664 4.86328 59.6351 5.53182 59.6351 6.35355V21.3754Z" fill="#059CAF"/>
<path d="M46.5081 33.7996C45.3414 33.7996 44.2413 34.0892 43.2756 34.6003C42.0314 32.7362 39.9091 31.5063 37.5048 31.5063C36.2632 31.5063 35.0967 31.8344 34.0874 32.4084C32.8241 30.6928 30.7904 29.5778 28.5014 29.5778C27.781 29.5778 27.0854 29.6884 26.4315 29.8933V27.7288H27.0091C30.5124 27.7288 33.3626 24.8786 33.3626 21.3753V6.35355C33.3626 2.85021 30.5124 0 27.0091 0H11.9874C8.48402 0 5.63381 2.85021 5.63381 6.35355V21.3754C5.63381 24.8788 8.48402 27.729 11.9874 27.729H12.565V42.7925C12.189 42.4154 11.7667 42.0794 11.3031 41.7915C9.80942 40.8636 8.05783 40.5406 6.34028 40.8713C4.49353 40.9454 2.83613 41.7514 1.75956 43.1084C0.628684 44.5337 0.235892 46.4451 0.681531 48.3524L3.87703 62.0282C5.69979 73.4385 14.6006 81.9755 14.9796 82.3342C15.4312 82.7617 16.0294 82.9998 16.6513 82.9998H44.0011C44.8197 82.9998 45.5832 82.5879 46.0329 81.904C50.8769 74.5358 53.4381 65.9805 53.4392 57.1632L53.4418 40.7331C53.4415 36.9102 50.3311 33.7996 46.5081 33.7996ZM17.6729 78.1367C15.7131 76.0522 9.93782 69.3207 8.6672 61.1859C8.6578 61.1261 8.64629 61.0668 8.63251 61.0079L5.41691 47.2458C5.30959 46.7861 5.36357 46.3902 5.56913 46.131C5.77468 45.8718 6.1263 45.7364 6.59625 45.6917C6.83277 45.6691 6.93085 45.6411 7.14953 45.6278C7.70119 45.5944 8.26679 45.6309 8.73659 45.9227C9.20638 46.2145 9.53416 46.6716 9.65996 47.21L12.4335 59.0808C12.6651 60.0719 13.4895 60.814 14.4994 60.9403L14.6943 60.9646C15.3866 61.0512 16.0824 60.8364 16.6054 60.3749C17.1283 59.9134 17.4278 59.2494 17.4278 58.5518V19.9057C17.4278 18.7643 18.3565 17.8356 19.4979 17.8356C20.6393 17.8356 21.568 18.7643 21.568 19.9057V42.708C21.568 44.051 22.6568 45.1397 23.9997 45.1397C25.3426 45.1397 26.4313 44.051 26.4313 42.708V36.5112C26.4313 35.3698 27.3599 34.4413 28.5013 34.4413C29.6427 34.4413 30.5714 35.3698 30.5714 36.5112V42.9849C30.5714 44.3278 31.6602 45.4166 33.0031 45.4166C34.346 45.4166 35.4347 44.3278 35.4347 42.9849V38.4397C35.4347 37.2983 36.3634 36.3696 37.5048 36.3696C38.6463 36.3696 39.5748 37.2983 39.5748 38.4397V44.683C39.5748 46.0259 40.6635 47.1147 42.0065 47.1147C43.3494 47.1147 44.4381 46.0259 44.4381 44.683V40.7329C44.4381 39.5915 45.3668 38.6628 46.5082 38.6628C47.6496 38.6628 48.5784 39.5915 48.5784 40.7324L48.5758 57.1627C48.5748 64.5946 46.5348 71.8183 42.6646 78.1367H17.6729ZM10.4971 21.3754V6.35355C10.4971 5.53182 11.1656 4.86328 11.9874 4.86328H27.0091C27.8308 4.86328 28.4993 5.53182 28.4993 6.35355V21.3754C28.4993 22.1971 27.8308 22.8657 27.0091 22.8657H26.4315V19.9056C26.4315 16.0825 23.3211 12.9722 19.4981 12.9722C15.675 12.9722 12.5646 16.0825 12.5646 19.9056V22.8657H11.987C11.1656 22.8657 10.4971 22.1971 10.4971 21.3754Z" fill="#059CAF"/>
</svg>
