<svg width="93" height="83" viewBox="0 0 93 83" fill="none" xmlns="http://www.w3.org/2000/svg">
<path d="M46.5 18.0435C45.4974 18.0435 44.6836 18.8519 44.6836 19.8478C44.6836 20.8437 45.4974 21.6522 46.5 21.6522C47.5026 21.6522 48.3164 20.8437 48.3164 19.8478C48.3164 18.8519 47.5026 18.0435 46.5 18.0435Z" fill="#059CAF"/>
<path d="M16.3477 50.5217C17.3502 50.5217 18.1641 49.7133 18.1641 48.7174C18.1641 47.7215 17.3502 46.913 16.3477 46.913C15.3451 46.913 14.5312 47.7215 14.5312 48.7174C14.5312 49.7133 15.3451 50.5217 16.3477 50.5217Z" fill="#059CAF"/>
<path d="M61.0312 0C44.6786 0 31.2571 11.1996 30.219 25.3067C14.6455 26.0827 0 37.2379 0 52.3261C0 58.6314 2.51175 64.7408 7.08398 69.5816C7.98864 73.2861 6.89028 77.2127 4.16496 79.9199C3.64558 80.4359 3.4902 81.2119 3.77117 81.8864C4.05215 82.5602 4.71414 83 5.44922 83C10.6295 83 15.6218 80.9821 19.3312 77.4263C22.9449 78.6498 27.6598 79.3913 31.9688 79.3913C48.3192 79.3913 61.7394 68.1945 62.7803 54.0903C66.5834 53.9225 70.539 53.2247 73.6688 52.1654C77.3782 55.7212 82.3705 57.7391 87.5508 57.7391C88.2859 57.7391 88.9479 57.2993 89.2288 56.6255C89.5098 55.951 89.3544 55.175 88.835 54.659C86.1097 51.9518 85.0114 48.0253 85.916 44.3207C90.4883 39.48 93 33.3706 93 27.0652C93 11.3878 77.2264 0 61.0312 0ZM31.9688 75.7826C27.6817 75.7826 22.7966 74.9467 19.5242 73.6533C18.8232 73.3756 18.0222 73.5582 17.512 74.1115C15.3188 76.4931 12.4672 78.1536 9.36017 78.917C11.0723 75.6586 11.5093 71.8173 10.4678 68.1776C10.3854 67.8907 10.2329 67.6285 10.0236 67.4149C5.90261 63.1987 3.63281 57.8399 3.63281 52.3261C3.63281 39.6111 16.6088 28.8696 31.9688 28.8696C46.473 28.8696 59.2148 38.8886 59.2148 52.3261C59.2148 65.2603 46.9924 75.7826 31.9688 75.7826ZM82.9764 42.1541C82.7671 42.3683 82.6146 42.6305 82.5322 42.9167C81.4907 46.5564 81.9277 50.3977 83.6398 53.6561C80.5328 52.8935 77.6812 51.2322 75.488 48.8506C74.9778 48.298 74.1768 48.1148 73.4758 48.3925C70.6398 49.5131 66.594 50.2891 62.7746 50.4766C62.2438 43.6532 58.8175 37.24 52.9596 32.4783H76.6523C77.6556 32.4783 78.4688 31.6705 78.4688 30.6739C78.4688 29.6773 77.6556 28.8696 76.6523 28.8696H47.3791C43.256 26.7847 38.6263 25.5689 33.8611 25.3137C34.9048 13.195 46.6923 3.6087 61.0312 3.6087C76.3912 3.6087 89.3672 14.3502 89.3672 27.0652C89.3672 32.579 87.0974 37.9378 82.9764 42.1541Z" fill="#059CAF"/>
<path d="M46.5 46.913H23.6133C22.61 46.913 21.7969 47.7208 21.7969 48.7174C21.7969 49.714 22.61 50.5217 23.6133 50.5217H46.5C47.5033 50.5217 48.3164 49.714 48.3164 48.7174C48.3164 47.7208 47.5033 46.913 46.5 46.913Z" fill="#059CAF"/>
<path d="M46.5 57.7391H16.3477C15.3444 57.7391 14.5312 58.5469 14.5312 59.5435C14.5312 60.5401 15.3444 61.3478 16.3477 61.3478H46.5C47.5033 61.3478 48.3164 60.5401 48.3164 59.5435C48.3164 58.5469 47.5033 57.7391 46.5 57.7391Z" fill="#059CAF"/>
<path d="M76.6523 18.0435H53.7656C52.7623 18.0435 51.9492 18.8512 51.9492 19.8478C51.9492 20.8444 52.7623 21.6522 53.7656 21.6522H76.6523C77.6556 21.6522 78.4688 20.8444 78.4688 19.8478C78.4688 18.8512 77.6556 18.0435 76.6523 18.0435Z" fill="#059CAF"/>
</svg>
