<svg width="83" height="79" viewBox="0 0 83 79" fill="none" xmlns="http://www.w3.org/2000/svg">
<path d="M78.5264 51.3901L71.9397 48.4013L70.055 45.3555C77.4032 40.7105 81.8578 32.639 81.8578 23.9392V11.4321C81.8388 10.7277 81.439 10.0805 80.8108 9.75684L63.8872 0.752482C63.3161 0.447895 62.6307 0.447895 62.0787 0.771519L45.6881 9.75684C45.0789 10.0995 44.7172 10.7277 44.7362 11.4321V24.1867C44.7172 27.8036 45.4596 31.4016 46.9445 34.714H33.219C30.2683 34.714 27.47 36.1036 25.6615 38.4451L18.18 48.2491L5.61583 51.6757C2.30344 52.5704 0.0190367 55.5782 0 59.0048V63.802C0.0190367 68.0091 3.44564 71.4167 7.65275 71.4548H8.56651C9.97523 76.5566 15.2674 79.5454 20.3693 78.1176C23.6055 77.2229 26.1374 74.691 27.0321 71.4548H55.0161C56.4248 76.5566 61.717 79.5454 66.8188 78.1176C70.055 77.2229 72.5869 74.691 73.4817 71.4548H75.3472C79.5544 71.4357 82.981 68.0282 83 63.802V58.3004C82.981 55.3117 81.2296 52.6275 78.5264 51.3901ZM48.5436 12.5552L63.0686 4.57886L78.0505 12.5743V23.9392C78.0314 32.639 72.8154 40.463 64.8009 43.8325C64.8009 43.8325 64.7819 43.8325 64.7628 43.8325L62.9353 44.613L61.4505 43.9468C53.6073 40.5011 48.5436 32.7532 48.5436 24.1676V12.5552ZM17.7993 74.5958C14.6011 74.5958 12.0312 72.0069 12.0312 68.8277C12.0312 65.6296 14.6202 63.0596 17.7993 63.0596C20.9975 63.0596 23.5674 65.6486 23.5674 68.8277C23.5674 72.0069 20.9784 74.5768 17.7993 74.5958ZM64.2489 74.5958C61.0507 74.5958 58.4807 72.0069 58.4807 68.8277C58.4807 65.6486 61.0697 63.0596 64.2489 63.0596C67.447 63.0596 70.017 65.6486 70.017 68.8277C70.036 72.0069 67.447 74.5768 64.2489 74.5958ZM79.2117 63.783H79.1927C79.1736 65.8961 77.4603 67.6094 75.3472 67.6284H73.7482C73.0628 62.3743 68.2656 58.6812 63.0115 59.3665C58.7092 59.9185 55.3016 63.3261 54.7495 67.6284H27.2986C26.6133 62.3743 21.8161 58.6812 16.5619 59.3665C12.2596 59.9185 8.85206 63.3261 8.3 67.6284H7.65275C5.53968 67.6094 3.82638 65.8961 3.80734 63.783V58.9857C3.82638 57.2724 4.96858 55.7876 6.62477 55.3307L19.7982 51.7328C20.1979 51.6185 20.5596 51.3901 20.8261 51.0474L28.7073 40.7296C29.7924 39.3208 31.4677 38.5023 33.2381 38.5023H49.1147C51.8179 42.4238 55.5681 45.5268 59.9275 47.4495L62.2119 48.4394C62.6878 48.6488 63.2399 48.6488 63.7349 48.4394L66.3048 47.3353C66.4381 47.2782 66.5713 47.2211 66.6855 47.164L69.0271 50.9142C69.2174 51.2378 69.503 51.4853 69.8456 51.6376L76.9654 54.8548C78.317 55.464 79.1927 56.8156 79.2117 58.3004V63.783Z" fill="#059CAF"/>
<path d="M72.4537 19.7513C71.7875 18.9327 70.6072 18.7995 69.7696 19.4467L69.7505 19.4657L60.8413 26.7187L57.6051 22.9304C56.9198 22.1309 55.7205 22.0167 54.9209 22.702C54.1214 23.3873 54.0072 24.5866 54.6925 25.3862L54.7115 25.4052L59.1471 30.6022C59.1661 30.6403 59.1852 30.6593 59.2042 30.6784C59.2232 30.6974 59.2423 30.7355 59.2803 30.7545C59.2994 30.7735 59.3374 30.8116 59.3565 30.8307C59.3755 30.8497 59.4136 30.8687 59.4326 30.8878C59.4517 30.9068 59.4897 30.9258 59.5278 30.9449C59.5659 30.9639 59.5849 30.9829 59.604 31.002C59.642 31.021 59.6611 31.0401 59.6991 31.0591C59.7182 31.0781 59.7563 31.0972 59.7753 31.0972C59.8134 31.1162 59.8514 31.1352 59.8895 31.1352C59.9085 31.1543 59.9466 31.1543 59.9657 31.1733C60.0037 31.1924 60.0418 31.1924 60.0799 31.2114C60.0989 31.2114 60.137 31.2304 60.156 31.2304C60.1941 31.2304 60.2322 31.2495 60.2702 31.2495C60.2893 31.2495 60.3274 31.2685 60.3464 31.2685C60.4035 31.2685 60.4416 31.2685 60.4987 31.2685C60.5177 31.2685 60.5368 31.2685 60.5558 31.2685C60.6129 31.2685 60.67 31.2685 60.7271 31.2685C60.7462 31.2685 60.7462 31.2685 60.7652 31.2685C60.8033 31.2685 60.8604 31.2495 60.8985 31.2495C60.9175 31.2495 60.9365 31.2495 60.9556 31.2304C60.9936 31.2304 61.0317 31.2114 61.0698 31.2114C61.0888 31.2114 61.1079 31.1924 61.1269 31.1924C61.165 31.1924 61.184 31.1733 61.2221 31.1543C61.2411 31.1543 61.2602 31.1352 61.2982 31.1352C61.3173 31.1162 61.3553 31.1162 61.3744 31.0972C61.3934 31.0781 61.4315 31.0781 61.4505 31.0591C61.4696 31.0401 61.5076 31.0401 61.5267 31.021C61.5457 31.002 61.5838 30.983 61.6028 30.983C61.6218 30.983 61.6409 30.9449 61.679 30.9449C61.698 30.9258 61.717 30.9068 61.7551 30.8878C61.7741 30.8687 61.7932 30.8687 61.8122 30.8497L72.1491 22.4355C72.9677 21.7692 73.101 20.5889 72.4537 19.7513Z" fill="#059CAF"/>
</svg>
