<svg width="64" height="83" viewBox="0 0 64 83" fill="none" xmlns="http://www.w3.org/2000/svg">
<path d="M57.6425 0H42.6208C39.1175 0 36.2673 2.85021 36.2673 6.35355V21.3754C36.2673 24.8788 39.1175 27.729 42.6208 27.729H57.6425C61.146 27.729 63.9962 24.8788 63.9962 21.3754V6.35355C63.9964 2.85021 61.1462 0 57.6425 0ZM59.1331 21.3754C59.1331 22.1971 58.4644 22.8657 57.6427 22.8657H42.621C41.7993 22.8657 41.1307 22.1971 41.1307 21.3754V6.35355C41.1307 5.53182 41.7993 4.86328 42.621 4.86328H57.6427C58.4644 4.86328 59.1331 5.53182 59.1331 6.35355V21.3754Z" fill="#059CAF"/>
<path d="M46.0061 33.7996C44.8394 33.7996 43.7393 34.0892 42.7737 34.6003C41.5295 32.7362 39.4071 31.5063 37.0029 31.5063C35.7613 31.5063 34.5948 31.8344 33.5855 32.4084C32.3221 30.6928 30.2885 29.5778 27.9995 29.5778C27.2791 29.5778 26.5835 29.6884 25.9295 29.8933V27.7288H26.5071C30.0105 27.7288 32.8607 24.8786 32.8607 21.3753V6.35355C32.8607 2.85021 30.0105 0 26.5071 0H11.4854C7.98207 0 5.13186 2.85021 5.13186 6.35355V21.3754C5.13186 24.8788 7.98207 27.729 11.4854 27.729H12.063V42.7925C11.6871 42.4154 11.2648 42.0794 10.8011 41.7915C9.30747 40.8636 7.55588 40.5406 5.83833 40.8713C3.99158 40.9454 2.33417 41.7514 1.25761 43.1084C0.12673 44.5337 -0.266061 46.4451 0.179578 48.3524L3.37508 62.0282C5.19784 73.4385 14.0986 81.9755 14.4776 82.3342C14.9293 82.7617 15.5274 82.9998 16.1493 82.9998H43.4991C44.3178 82.9998 45.0813 82.5879 45.531 81.904C50.375 74.5358 52.9361 65.9805 52.9373 57.1632L52.9399 40.7331C52.9395 36.9102 49.8291 33.7996 46.0061 33.7996ZM17.1709 78.1367C15.2112 76.0522 9.43586 69.3207 8.16525 61.1859C8.15585 61.1261 8.14434 61.0668 8.13056 61.0079L4.91496 47.2458C4.80764 46.7861 4.86162 46.3902 5.06718 46.131C5.27273 45.8718 5.62435 45.7364 6.0943 45.6917C6.33082 45.6691 6.4289 45.6411 6.64758 45.6278C7.19924 45.5944 7.76484 45.6309 8.23463 45.9227C8.70443 46.2145 9.03221 46.6716 9.15801 47.21L11.9315 59.0808C12.1632 60.0719 12.9875 60.814 13.9975 60.9403L14.1923 60.9646C14.8847 61.0512 15.5805 60.8364 16.1034 60.3749C16.6264 59.9134 16.9258 59.2494 16.9258 58.5518V19.9057C16.9258 18.7643 17.8545 17.8356 18.9959 17.8356C20.1374 17.8356 21.0661 18.7643 21.0661 19.9057V42.708C21.0661 44.051 22.1548 45.1397 23.4977 45.1397C24.8406 45.1397 25.9294 44.051 25.9294 42.708V36.5112C25.9294 35.3698 26.8579 34.4413 27.9993 34.4413C29.1407 34.4413 30.0695 35.3698 30.0695 36.5112V42.9849C30.0695 44.3278 31.1582 45.4166 32.5011 45.4166C33.844 45.4166 34.9328 44.3278 34.9328 42.9849V38.4397C34.9328 37.2983 35.8615 36.3696 37.0029 36.3696C38.1443 36.3696 39.0729 37.2983 39.0729 38.4397V44.683C39.0729 46.0259 40.1616 47.1147 41.5045 47.1147C42.8474 47.1147 43.9361 46.0259 43.9361 44.683V40.7329C43.9361 39.5915 44.8649 38.6628 46.0063 38.6628C47.1477 38.6628 48.0764 39.5915 48.0764 40.7324L48.0738 57.1627C48.0729 64.5946 46.0329 71.8183 42.1627 78.1367H17.1709ZM9.99514 21.3754V6.35355C9.99514 5.53182 10.6637 4.86328 11.4854 4.86328H26.5071C27.3288 4.86328 27.9974 5.53182 27.9974 6.35355V21.3754C27.9974 22.1971 27.3288 22.8657 26.5071 22.8657H25.9295V19.9056C25.9295 16.0825 22.8191 12.9722 18.9961 12.9722C15.1731 12.9722 12.0627 16.0825 12.0627 19.9056V22.8657H11.4851C10.6637 22.8657 9.99514 22.1971 9.99514 21.3754Z" fill="#059CAF"/>
</svg>
