<svg width="59" height="59" viewBox="0 0 59 59" fill="none" xmlns="http://www.w3.org/2000/svg">
<path d="M10.9178 34.1306C9.90174 34.7333 9.21875 35.8409 9.21875 37.1055C9.21875 39.0117 10.7696 40.5625 12.6758 40.5625C14.178 40.5625 15.4589 39.599 15.9346 38.2578H24.8906C26.7968 38.2578 28.3477 39.8086 28.3477 41.7148C28.3477 43.6211 26.7968 45.1719 24.8906 45.1719H11.0625C7.88549 45.1719 5.30078 47.7566 5.30078 50.9336C5.30078 54.1106 7.88549 56.6953 11.0625 56.6953H22.5859C23.2224 56.6953 23.7383 56.1794 23.7383 55.543C23.7383 54.9065 23.2224 54.3906 22.5859 54.3906H11.0625C9.15629 54.3906 7.60547 52.8398 7.60547 50.9336C7.60547 49.0274 9.15629 47.4766 11.0625 47.4766H24.8906C28.0676 47.4766 30.6523 44.8919 30.6523 41.7148C30.6523 38.5378 28.0676 35.9531 24.8906 35.9531H15.9346C15.6621 35.1847 15.1253 34.5407 14.4338 34.1306L23.2352 19.6899C24.6197 17.6087 25.3516 15.1837 25.3516 12.6758C25.3516 5.68636 19.6652 0 12.6758 0C5.68636 0 0 5.68636 0 12.6758C0 15.1837 0.731853 17.6087 2.11639 19.6899L10.9178 34.1306ZM12.6758 38.2578C12.0404 38.2578 11.5234 37.7409 11.5234 37.1055C11.5234 36.4701 12.0404 35.9531 12.6758 35.9531C13.3112 35.9531 13.8281 36.4701 13.8281 37.1055C13.8281 37.7409 13.3112 38.2578 12.6758 38.2578ZM12.6758 2.30469C18.3944 2.30469 23.0469 6.95716 23.0469 12.6758C23.0469 14.7348 22.4445 16.7245 21.3051 18.43C21.2962 18.4433 21.2876 18.4567 21.2793 18.4705L12.6758 32.5866C12.6758 32.5866 4.05533 18.4433 4.04646 18.43C2.90702 16.7245 2.30469 14.7348 2.30469 12.6758C2.30469 6.95716 6.95716 2.30469 12.6758 2.30469Z" fill="#059CAF"/>
<path d="M12.6758 18.4375C15.8528 18.4375 18.4375 15.8528 18.4375 12.6758C18.4375 9.49877 15.8528 6.91406 12.6758 6.91406C9.49877 6.91406 6.91406 9.49877 6.91406 12.6758C6.91406 15.8528 9.49877 18.4375 12.6758 18.4375ZM12.6758 9.21875C14.582 9.21875 16.1328 10.7696 16.1328 12.6758C16.1328 14.582 14.582 16.1328 12.6758 16.1328C10.7696 16.1328 9.21875 14.582 9.21875 12.6758C9.21875 10.7696 10.7696 9.21875 12.6758 9.21875Z" fill="#059CAF"/>
<path d="M46.3242 19.1289C39.3348 19.1289 33.6484 24.8153 33.6484 31.8047C33.6484 34.3167 34.3826 36.7454 35.7715 38.8287L44.54 52.5831C43.8611 52.9939 43.3346 53.6318 43.0655 54.3906H32.957C32.3206 54.3906 31.8047 54.9065 31.8047 55.543C31.8047 56.1794 32.3206 56.6953 32.957 56.6953H43.0654C43.5411 58.0365 44.8219 59 46.3242 59C48.2304 59 49.7812 57.4492 49.7812 55.543C49.7812 54.2891 49.1102 53.1892 48.1085 52.5831L56.877 38.8287C58.2658 36.7454 59 34.3167 59 31.8047C59 24.8153 53.3136 19.1289 46.3242 19.1289ZM46.3242 56.6953C45.6888 56.6953 45.1719 56.1784 45.1719 55.543C45.1719 54.9076 45.6888 54.3906 46.3242 54.3906C46.9596 54.3906 47.4766 54.9076 47.4766 55.543C47.4766 56.1784 46.9596 56.6953 46.3242 56.6953ZM54.9535 37.5589C54.9491 37.5658 46.3242 51.0946 46.3242 51.0946C46.3242 51.0946 37.6994 37.5657 37.6949 37.5589C36.5555 35.8534 35.9531 33.8637 35.9531 31.8047C35.9531 26.0861 40.6056 21.4336 46.3242 21.4336C52.0428 21.4336 56.6953 26.0861 56.6953 31.8047C56.6953 33.8637 56.093 35.8534 54.9535 37.5589Z" fill="#059CAF"/>
<path d="M46.3242 26.043C43.1472 26.043 40.5625 28.6277 40.5625 31.8047C40.5625 34.9817 43.1472 37.5664 46.3242 37.5664C49.5012 37.5664 52.0859 34.9817 52.0859 31.8047C52.0859 28.6277 49.5012 26.043 46.3242 26.043ZM46.3242 35.2617C44.418 35.2617 42.8672 33.7109 42.8672 31.8047C42.8672 29.8985 44.418 28.3477 46.3242 28.3477C48.2304 28.3477 49.7812 29.8985 49.7812 31.8047C49.7812 33.7109 48.2304 35.2617 46.3242 35.2617Z" fill="#059CAF"/>
<path d="M27.7715 56.6953C28.4079 56.6953 28.9238 56.1794 28.9238 55.543C28.9238 54.9065 28.4079 54.3906 27.7715 54.3906C27.1351 54.3906 26.6191 54.9065 26.6191 55.543C26.6191 56.1794 27.1351 56.6953 27.7715 56.6953Z" fill="#059CAF"/>
</svg>
