<svg width="69" height="54" viewBox="0 0 69 54" fill="none" xmlns="http://www.w3.org/2000/svg">
<path d="M67.918 51.9673H63.3909V48.3381C64.5831 48.3143 65.6973 48.1891 66.6347 47.5342C67.9239 46.6336 68.5244 44.9676 68.5244 42.2915C68.5244 39.3166 67.5522 35.8493 66.1288 33.422C67.9818 31.5217 69 29.0256 69 26.3493C69 21.349 65.3069 17.0587 60.399 16.3407C59.6772 14.8469 58.5125 13.609 57.0785 12.7974C56.4991 7.68214 52.2265 3.83971 47.086 3.83971C45.7529 3.83971 44.4644 4.09813 43.2482 4.6044C42.2037 2.67553 41.1179 1.72763 39.9631 1.72763C38.7923 1.72763 37.7088 2.68691 36.6511 4.66037C35.8109 6.22797 34.9853 8.45049 34.2634 11.0871C33.767 12.9004 33.3371 14.8483 32.9812 16.8518C31.19 15.7928 29.1654 15.2373 27.0533 15.2373C26.4341 15.2373 25.8235 15.2865 25.2254 15.3812V7.69501C25.2254 4.29029 23.0875 1.22244 19.9053 0.0612406C19.3806 -0.130237 18.8009 0.142277 18.6103 0.669823C18.4199 1.19751 18.6909 1.78034 19.2157 1.97182C21.6012 2.84248 23.2039 5.14225 23.2039 7.69488V15.8916C21.2496 16.5743 19.5089 17.7647 18.1614 19.3353V17.6754L20.1038 15.7223C20.4985 15.3253 20.4985 14.6819 20.1038 14.2849C19.7091 13.8882 19.0691 13.8882 18.6745 14.2849L18.1614 14.8008V8.6066C18.1614 8.04518 17.7089 7.59026 17.1507 7.59026C16.5925 7.59026 16.1399 8.04518 16.1399 8.6066V10.1264L15.1206 9.10135C14.7258 8.70457 14.0858 8.70457 13.6912 9.10135C13.2965 9.4984 13.2965 10.1418 13.6912 10.5387L16.1401 13.0011V20.8826C14.666 18.7463 12.9325 17.1736 11.0975 16.9813V7.69501C11.0975 5.15119 12.6926 2.85373 15.0669 1.97846C15.591 1.78522 15.86 1.20143 15.6679 0.674295C15.4757 0.14729 14.8952 -0.122649 14.3709 0.0699132C11.2039 1.23762 9.07593 4.3018 9.07593 7.69501V17.3391C7.126 18.219 5.13228 20.6007 3.41685 24.1675C1.32192 28.5227 0.0714258 33.8673 0.0714258 38.464C0.0714258 43.1702 1.07786 46.0654 3.23855 47.5749C5.01207 48.814 7.28193 48.9258 9.70986 48.9347V51.9673H1.01074C0.452543 51.9673 0 52.4222 0 52.9837C0 53.5451 0.452543 54 1.01074 54H67.918C68.4763 54 68.9287 53.5451 68.9287 52.9837C68.9287 52.4222 68.4762 51.9673 67.918 51.9673ZM19.203 46.6852C19.9072 46.7919 20.6504 46.8201 21.4161 46.8271V51.9675H18.1611V47.607C18.5326 47.3518 18.8809 47.0476 19.203 46.6852ZM23.4378 46.8272C24.347 46.8192 25.2246 46.7817 26.0424 46.6172V51.9673H23.4378V46.8272ZM34.078 40.7331C35.0349 41.9076 36.1989 42.3564 37.426 42.5285C36.1541 43.342 34.6783 43.7784 33.1274 43.7784C32.0306 43.7784 30.9759 43.5613 29.984 43.1358C30.3727 42.0014 30.5607 40.5781 30.5607 38.826C30.5607 38.6536 30.5568 38.4793 30.5523 38.305C31.2521 38.0857 31.9267 37.7995 32.5722 37.4527C32.9329 38.8646 33.4306 39.9384 34.078 40.7331ZM28.1069 45.7768C28.4475 45.5388 28.7505 45.2569 29.0181 44.9301C30.2208 45.4733 31.4985 45.7681 32.8272 45.8066V51.9673H28.064L28.1069 45.7768ZM34.8485 45.6622C36.3334 45.4073 37.7283 44.8236 38.9523 43.9444V51.9673H34.8485V45.6622ZM40.9737 42.6321C41.7618 42.6199 42.5482 42.5699 43.2971 42.3715V51.9673H40.9737V42.6321ZM47.5246 41.3229V51.9673H45.3187V41.2921C45.5011 41.1267 45.678 40.9418 45.8481 40.7331C46.0489 40.4866 46.2351 40.2128 46.4076 39.911C46.7332 40.4036 47.1061 40.9177 47.5246 41.3229ZM49.546 42.6884C50.3441 43.0858 51.2124 43.3529 52.1207 43.4672V51.9673H49.546V42.6884ZM54.1422 43.4667C54.8679 43.3751 55.576 43.1852 56.2482 42.9024C56.3358 45.2228 56.9377 46.7045 58.1255 47.5342C59.0629 48.1891 60.1778 48.3181 61.3693 48.3402V51.9672H54.1421L54.1422 43.4667ZM65.4814 45.865C64.9952 46.2046 64.2599 46.2882 63.3909 46.3067V44.4649C63.4097 44.4486 63.4285 44.4325 63.4463 44.4146L65.0512 42.8008C65.446 42.4037 65.446 41.7603 65.0512 41.3634C64.6564 40.9666 64.0165 40.9666 63.6218 41.3634L63.3909 41.5955V38.6951C63.3909 38.1336 62.9385 37.6787 62.3802 37.6787C61.8218 37.6787 61.3694 38.1336 61.3694 38.6951V46.307C60.4994 46.2884 59.7653 46.205 59.279 45.8651C58.5914 45.3847 58.2572 44.2159 58.2572 42.2917C58.2572 40.0668 58.8655 37.4738 59.8843 35.3552C60.9213 33.1992 61.9655 32.3958 62.3802 32.3958C62.7949 32.3958 63.8389 33.1992 64.8759 35.3552C65.8949 37.4738 66.5031 40.0668 66.5031 42.2917C66.5031 44.2158 66.1688 45.3846 65.4814 45.865ZM66.9785 26.3493C66.9785 28.3712 66.2505 30.2643 64.9198 31.7483C64.1278 30.8843 63.2611 30.363 62.3802 30.363C61.9841 30.363 61.591 30.4683 61.2062 30.6626V19.8768C61.2062 19.4291 61.1685 18.9903 61.0988 18.5621C64.515 19.5207 66.9785 22.698 66.9785 26.3493ZM47.2127 18.4575C47.9359 15.8332 50.4196 13.7901 53.1315 13.7901C56.4694 13.7901 59.1847 16.5205 59.1847 19.8768V32.5636C57.7519 34.5735 56.659 37.6664 56.3347 40.5785C56.3299 40.5814 56.3249 40.5837 56.3202 40.5867C55.6528 41.0035 54.9128 41.2795 54.1422 41.4102V35.449L56.0846 33.4959C56.4793 33.0988 56.4793 32.4554 56.0846 32.0585C55.6897 31.6617 55.0499 31.6617 54.6551 32.0585L54.1422 32.5743V26.3802C54.1422 25.8187 53.6898 25.3638 53.1315 25.3638C52.5732 25.3638 52.1207 25.8187 52.1207 26.3802V27.8999L51.1015 26.8749C50.7068 26.478 50.0668 26.4779 49.6722 26.8748C49.2773 27.2717 49.2773 27.9152 49.672 28.312L52.1209 30.7745V41.4131C49.9436 41.0447 48.109 39.5034 47.3903 37.347C47.3886 37.3417 47.3862 37.337 47.3844 37.3317C47.8696 35.3654 48.0968 32.7567 48.0968 29.3437C48.0968 25.9017 47.7833 22.1273 47.2127 18.4575ZM39.963 3.76044C40.1988 3.76044 41.3775 4.6128 42.8353 8.78304C43.0203 9.31248 43.5967 9.59109 44.124 9.40476C44.6505 9.21871 44.9275 8.63858 44.7423 8.10887C44.5332 7.51072 44.3228 6.95688 44.1111 6.44397C45.0551 6.06481 46.0536 5.87238 47.086 5.87238C50.8239 5.87238 53.9879 8.4139 54.8762 11.9503C54.3139 11.8253 53.7307 11.7574 53.1315 11.7574C50.506 11.7574 48.1011 13.0465 46.6103 15.0919C46.4578 14.3436 46.2958 13.6049 46.1223 12.882C45.9913 12.3364 45.4455 12.0005 44.9027 12.1323C44.3601 12.2641 44.0263 12.813 44.1572 13.3587C45.3761 18.4401 46.0752 24.2665 46.0752 29.3437C46.0752 34.6615 45.4893 37.9656 44.2841 39.4448C43.5088 40.3965 42.5211 40.5692 40.9737 40.5978V35.3951L44.2527 32.0979C44.6474 31.7009 44.6474 31.0575 44.2527 30.6606C43.8579 30.2638 43.218 30.2638 42.8233 30.6606L40.9737 32.5203V24.05C40.9737 23.4886 40.5213 23.0337 39.963 23.0337C39.4047 23.0337 38.9523 23.4886 38.9523 24.05V26.1747L37.5147 24.7292C37.1198 24.3324 36.48 24.3324 36.0852 24.7292C35.6905 25.1263 35.6905 25.7697 36.0852 26.1666L38.9492 29.0464C38.9502 29.0474 38.9513 29.0483 38.9523 29.0492V40.5978C37.4049 40.5692 36.417 40.3964 35.6419 39.4448C34.4367 37.9656 33.8508 34.6615 33.8508 29.3437C33.8508 23.651 34.7337 17.0277 36.2122 11.6266C37.9825 5.16013 39.6462 3.76044 39.963 3.76044ZM27.0531 17.27C29.0689 17.27 30.9883 17.8806 32.6253 19.0371C32.1121 22.5151 31.8293 26.0781 31.8293 29.3438C31.8293 31.7135 31.9392 33.6947 32.1684 35.3434C31.6079 35.6936 31.0164 35.9831 30.4 36.2103C30.0743 33.4724 29.2626 30.642 28.0639 28.1486V25.6844L30.194 23.5425C30.5887 23.1456 30.5887 22.5022 30.194 22.1053C29.7992 21.7085 29.1592 21.7084 28.7646 22.1054L28.064 22.81V21.6367C28.064 21.0753 27.6115 20.6204 27.0533 20.6204C26.4951 20.6204 26.0425 21.0753 26.0425 21.6367V24.8779C24.8657 23.4466 23.6178 22.6686 22.4272 22.6686C20.9963 22.6686 19.6612 23.7233 18.5173 25.2485C18.3129 24.7787 18.0958 24.3114 17.8675 23.8512C19.2177 19.9146 22.9087 17.27 27.0531 17.27ZM4.39201 45.9056C3.40499 45.216 2.09291 43.6945 2.09291 38.464C2.09291 34.1588 3.26807 29.1451 5.23659 25.0524C7.00714 21.3711 9.15975 18.9923 10.7207 18.9923C12.3526 18.9923 15.0968 21.8659 17.1938 27.3575C16.56 28.5483 16.0254 29.8376 15.618 31.0621C15.4409 31.5944 15.7265 32.1703 16.2558 32.3482C16.7852 32.5268 17.3579 32.2391 17.535 31.7069C18.9746 27.3797 21.1951 24.7013 22.4269 24.7013C23.2618 24.7013 24.8118 26.0559 26.2422 29.03C27.6805 32.0203 28.539 35.6824 28.539 38.8258C28.539 41.6343 28.0203 43.3619 26.9533 44.1074C26.116 44.6923 24.8807 44.7795 23.4376 44.7938V41.6858L26.7166 38.3887C27.1113 37.9916 27.1113 37.3482 26.7166 36.9513C26.3219 36.5545 25.6819 36.5545 25.2873 36.9513L23.4376 38.8112V33.8355C23.4376 33.274 22.9851 32.8191 22.4269 32.8191C21.8687 32.8191 21.4161 33.274 21.4161 33.8355V44.7946C19.9728 44.7813 18.7378 44.6925 17.9005 44.1075C16.8334 43.3621 16.3147 41.6344 16.3147 38.826C16.3147 38.0044 16.3719 37.1433 16.4847 36.2667C16.5562 35.7101 16.1655 35.2005 15.6119 35.1284C15.0582 35.0572 14.5515 35.4493 14.4799 36.0061C14.356 36.9688 14.2932 37.9175 14.2932 38.8261C14.2932 42.3987 15.073 44.6074 16.7471 45.777C16.8291 45.8343 16.913 45.8872 16.9974 45.9384C15.7106 46.8073 13.9048 46.8927 11.7313 46.9016V36.2893L13.2833 34.7288C13.678 34.3317 13.678 33.6883 13.2833 33.2914C12.8886 32.8946 12.2486 32.8946 11.854 33.2914L11.7313 33.4147V30.6168C11.7313 30.0554 11.2788 29.6005 10.7206 29.6005C10.1624 29.6005 9.70986 30.0554 9.70986 30.6168V39.3108L8.43727 38.0312C8.04254 37.6344 7.40254 37.6344 7.00795 38.0312C6.61322 38.4282 6.61322 39.0716 7.00795 39.4685L9.56715 42.0419C9.61175 42.0868 9.65987 42.1258 9.71 42.1605V46.9019C7.54364 46.8932 5.67943 46.8047 4.39201 45.9056ZM11.7313 48.9342C13.2915 48.9277 14.7954 48.8785 16.1397 48.5145V51.9673H11.7313V48.9342Z" fill="#059CAF"/>
</svg>
