<svg width="58" height="54" viewBox="0 0 58 54" fill="none" xmlns="http://www.w3.org/2000/svg">
<path d="M55.0912 22.7851H40.5935V16.9341C40.5935 16.3956 40.1608 15.959 39.627 15.959C39.0932 15.959 38.6605 16.3956 38.6605 16.9341V19.8596H31.8949V15.4714C32.9293 15.667 33.9743 15.7999 35.0245 15.8693C38.0672 15.8865 40.7446 13.8459 41.56 10.8881L43.0765 5.39995C43.2794 4.68798 43.1846 3.92322 42.8142 3.2836C42.4437 2.64398 41.8298 2.18528 41.1154 2.0142C32.5941 -0.6714 23.4636 -0.6714 14.9423 2.0142C14.2277 2.18607 13.6141 2.64574 13.2443 3.28617C12.8745 3.9266 12.7808 4.6919 12.9851 5.40385L14.4977 10.8881C15.4475 14.3133 18.8449 16.4286 22.3052 15.7493C22.9218 15.6352 23.5404 15.5465 24.1589 15.4694V19.8596H15.9291L12.9329 16.0818C12.3843 15.386 11.5505 14.9816 10.6693 14.9838H7.73209C6.13073 14.9838 4.83256 16.2936 4.83256 17.9093V20.039C3.67821 20.4508 2.90461 21.5498 2.89954 22.7851V28.636C2.89954 30.2517 4.1977 31.5615 5.79907 31.5615H6.43987L2.14276 46.303C0.882748 46.6467 0.00566653 47.7974 0 49.1144V50.0895C0 51.7052 1.29817 53.015 2.89954 53.015H11.5981C13.1995 53.015 14.4977 51.7052 14.4977 50.0895V49.1144C14.4944 47.9748 13.8354 46.9408 12.8092 46.4649L15.1646 38.3876H20.1489C21.9053 38.3874 23.4408 37.1926 23.8873 35.4787L24.908 31.5615H28.9954V42.2882C28.9954 43.9039 30.2935 45.2137 31.8949 45.2137H33.8279C35.4293 45.2137 36.7274 43.9039 36.7274 42.2882V31.5615H37.694C39.2953 31.5615 40.5935 30.2517 40.5935 28.636H55.0912C56.6925 28.636 57.9907 27.3263 57.9907 25.7106C57.9907 24.0949 56.6925 22.7851 55.0912 22.7851ZM21.9601 13.8341C19.4849 14.3237 17.0512 12.816 16.364 10.3674L14.8476 4.87922C14.7947 4.65577 14.8369 4.4202 14.9639 4.22957C15.091 4.03894 15.2913 3.91065 15.5164 3.87578C23.6639 1.30764 32.3938 1.30764 40.5413 3.87578C40.7664 3.91065 40.9667 4.03894 41.0937 4.22957C41.2208 4.4202 41.263 4.65577 41.2101 4.87922L39.6937 10.3674C39.008 12.8173 36.5732 14.3256 34.0976 13.8341C30.0855 13.0881 25.9722 13.0881 21.9601 13.8341ZM26.0958 15.2929C27.3833 15.213 28.6744 15.213 29.9619 15.2929V19.8596H26.0958V15.2929ZM6.76558 17.9093C6.76558 17.3707 7.1983 16.9341 7.73209 16.9341H10.6693C10.9631 16.9343 11.2409 17.0692 11.4242 17.3008L13.4529 19.8596H6.76558V17.9093ZM8.45505 31.5615H15.1394L10.8752 46.1889H4.19079L8.45505 31.5615ZM12.5647 50.0895C12.5647 50.6281 12.1319 51.0647 11.5981 51.0647H2.89954C2.36575 51.0647 1.93302 50.6281 1.93302 50.0895V49.1144C1.93302 48.5758 2.36575 48.1392 2.89954 48.1392H11.5981C12.1319 48.1392 12.5647 48.5758 12.5647 49.1144V50.0895ZM22.0181 34.9833C21.7946 35.8401 21.0269 36.4372 20.1489 36.4373H15.7329L17.1537 31.5615H19.4491L18.4333 34.1252C18.291 34.4514 18.3364 34.8299 18.5517 35.1124C18.767 35.3949 19.1179 35.5364 19.4669 35.4815C19.8159 35.4266 20.1074 35.184 20.2272 34.8488L21.531 31.5615H22.9063L22.0181 34.9833ZM34.7944 42.2882C34.7944 42.8268 34.3617 43.2634 33.8279 43.2634H31.8949C31.3611 43.2634 30.9284 42.8268 30.9284 42.2882V31.5615H34.7944V42.2882ZM37.694 29.6112H5.79907C5.26528 29.6112 4.83256 29.1746 4.83256 28.636V22.7851C4.83256 22.2465 5.26528 21.8099 5.79907 21.8099H38.6605V28.636C38.6605 29.1746 38.2277 29.6112 37.694 29.6112ZM55.0912 26.6857H40.5935V24.7354H55.0912C55.625 24.7354 56.0577 25.172 56.0577 25.7106C56.0577 26.2491 55.625 26.6857 55.0912 26.6857Z" fill="#059CAF"/>
<path d="M21.7977 9.91883C21.5195 10.0887 21.1814 10.1268 20.8729 10.023C20.5644 9.9192 20.3167 9.68395 20.1953 9.37957C20.0806 9.14819 19.8795 8.97227 19.6362 8.89052C19.393 8.80876 19.1275 8.82789 18.8982 8.94367C17.2445 9.77743 19.7903 13.1105 22.6618 11.6634C22.9735 11.5093 23.1793 11.1984 23.2011 10.8489C23.2229 10.4994 23.0572 10.1649 22.7671 9.97266C22.477 9.7804 22.107 9.75985 21.7977 9.91883Z" fill="#059CAF"/>
<path d="M9.66512 23.7602H7.7321C7.19831 23.7602 6.76558 24.1968 6.76558 24.7354C6.76558 25.274 7.19831 25.7106 7.7321 25.7106H9.66512C10.1989 25.7106 10.6316 25.274 10.6316 24.7354C10.6316 24.1968 10.1989 23.7602 9.66512 23.7602Z" fill="#059CAF"/>
<path d="M25.1293 23.7602H13.5312C12.9974 23.7602 12.5647 24.1968 12.5647 24.7354C12.5647 25.274 12.9974 25.7106 13.5312 25.7106H25.1293C25.6631 25.7106 26.0958 25.274 26.0958 24.7354C26.0958 24.1968 25.6631 23.7602 25.1293 23.7602Z" fill="#059CAF"/>
<path d="M53.1582 42.376C53.245 40.2305 52.16 38.2093 50.3315 37.1104C48.503 36.0115 46.2248 36.0115 44.3963 37.1104C42.5678 38.2093 41.4828 40.2305 41.5697 42.376C38.9525 42.8129 36.9628 44.9858 36.738 47.6527C36.5132 50.3195 38.1106 52.8003 40.617 53.6768C43.1235 54.5533 45.8999 53.6021 47.3591 51.367C48.8182 53.6002 51.5926 54.5507 54.0979 53.6757C56.6031 52.8007 58.2012 50.3229 57.9795 47.6575C57.7579 44.992 55.7729 42.8176 53.1582 42.376ZM47.3591 38.3876C48.3998 38.3874 49.3968 38.8105 50.1244 39.5613C50.852 40.3121 51.2488 41.3272 51.2251 42.377C49.645 42.6472 48.2458 43.5645 47.3591 44.9114C46.9118 44.2336 46.3299 43.6568 45.6503 43.2176C46.0814 43.119 46.3887 42.7342 46.3926 42.2883C46.3673 42.0209 46.4624 41.7562 46.6516 41.5672C46.8407 41.3783 47.104 41.285 47.3687 41.3131C47.9025 41.3104 48.3331 40.8716 48.3304 40.3331C48.3278 39.7945 47.8929 39.3601 47.3591 39.3628C46.5833 39.3399 45.8326 39.6408 45.2838 40.1944C44.7351 40.7481 44.4369 41.5056 44.4595 42.2883C44.4595 42.9055 44.9283 42.6218 43.4979 42.377C43.4742 41.328 43.8704 40.3137 44.5969 39.563C45.3235 38.8124 46.3192 38.3887 47.3591 38.3876ZM42.5265 52.0398C40.3914 52.0398 38.6605 50.2935 38.6605 48.1392C38.6605 45.985 40.3914 44.2386 42.5265 44.2386C44.6617 44.2386 46.3926 45.985 46.3926 48.1392C46.3926 50.2935 44.6617 52.0398 42.5265 52.0398ZM52.1916 52.0398C50.0565 52.0398 48.3256 50.2935 48.3256 48.1392C48.3256 45.985 50.0565 44.2386 52.1916 44.2386C54.3268 44.2386 56.0577 45.985 56.0577 48.1392C56.0577 50.2935 54.3268 52.0398 52.1916 52.0398Z" fill="#059CAF"/>
<path d="M42.5265 45.2137C41.7508 45.1908 41 45.4917 40.4513 46.0454C39.9025 46.5991 39.6043 47.3565 39.627 48.1392C39.627 48.6778 40.0597 49.1144 40.5935 49.1144C41.1273 49.1144 41.56 48.6778 41.56 48.1392C41.5348 47.8718 41.6298 47.6072 41.819 47.4182C42.0082 47.2292 42.2715 47.1359 42.5362 47.1641C43.07 47.1614 43.5005 46.7226 43.4979 46.184C43.4952 45.6455 43.0603 45.211 42.5265 45.2137Z" fill="#059CAF"/>
<path d="M52.1916 45.2137C51.4159 45.1908 50.6651 45.4917 50.1164 46.0454C49.5676 46.5991 49.2694 47.3565 49.2921 48.1392C49.2921 48.6778 49.7248 49.1144 50.2586 49.1144C50.7924 49.1144 51.2251 48.6778 51.2251 48.1392C51.1999 47.8718 51.295 47.6072 51.4841 47.4182C51.6733 47.2292 51.9366 47.1359 52.2013 47.1641C52.5466 47.1623 52.8648 46.9748 53.0359 46.6723C53.2071 46.3697 53.2052 45.9979 53.0311 45.6971C52.8569 45.3962 52.5369 45.212 52.1916 45.2137Z" fill="#059CAF"/>
</svg>
