<svg width="45" height="55" viewBox="0 0 45 55" fill="none" xmlns="http://www.w3.org/2000/svg">
<path d="M42.1087 55.0004H2.58259C2.10736 55.0004 1.72322 54.6163 1.72322 54.141V51.5629C1.72322 51.0877 2.10736 50.7035 2.58259 50.7035H42.1087C42.5839 50.7035 42.9681 51.0877 42.9681 51.5629V54.141C42.9681 54.6163 42.5839 55.0004 42.1087 55.0004ZM3.44197 53.2817H41.2493V52.4223H3.44197V53.2817Z" fill="#059CAF"/>
<path d="M6.87947 52.4223C6.40423 52.4223 6.02009 52.0382 6.02009 51.5629V18.0473C6.02009 17.5721 6.40423 17.1879 6.87947 17.1879C7.3547 17.1879 7.73884 17.5721 7.73884 18.0473V51.5629C7.73884 52.0382 7.3547 52.4223 6.87947 52.4223Z" fill="#059CAF"/>
<path d="M5.16072 20.6254C3.73931 20.6254 2.58259 19.4687 2.58259 18.0473C2.58259 16.6259 3.73931 15.4692 5.16072 15.4692C6.58212 15.4692 7.73884 16.6259 7.73884 18.0473C7.73884 18.5225 7.3547 18.9067 6.87947 18.9067C6.40423 18.9067 6.02009 18.5225 6.02009 18.0473C6.02009 17.5729 5.63509 17.1879 5.16072 17.1879C4.68634 17.1879 4.30134 17.5729 4.30134 18.0473C4.30134 18.5217 4.68634 18.9067 5.16072 18.9067C5.63595 18.9067 6.02009 19.2908 6.02009 19.7661C6.02009 20.2413 5.63595 20.6254 5.16072 20.6254Z" fill="#059CAF"/>
<path d="M17.1902 52.4224C16.715 52.4224 16.3309 52.0382 16.3309 51.563V18.0457C16.3309 17.5704 16.715 17.1863 17.1902 17.1863C17.6655 17.1863 18.0496 17.5704 18.0496 18.0457V51.563C18.0496 52.0382 17.6655 52.4224 17.1902 52.4224Z" fill="#059CAF"/>
<path d="M27.501 52.4223C27.0258 52.4223 26.6417 52.0382 26.6417 51.563V17.9872C26.6417 17.5119 27.0258 17.1278 27.501 17.1278C27.9763 17.1278 28.3604 17.5119 28.3604 17.9872V51.563C28.3604 52.0382 27.9763 52.4223 27.501 52.4223Z" fill="#059CAF"/>
<path d="M37.8118 52.4223C37.3366 52.4223 36.9524 52.0382 36.9524 51.5629V18.0473C36.9524 17.5721 37.3366 17.1879 37.8118 17.1879C38.2871 17.1879 38.6712 17.5721 38.6712 18.0473V51.5629C38.6712 52.0382 38.2871 52.4223 37.8118 52.4223Z" fill="#059CAF"/>
<path d="M39.5306 20.6254C39.0553 20.6254 38.6712 20.2413 38.6712 19.7661C38.6712 19.2908 39.0553 18.9067 39.5306 18.9067C40.0049 18.9067 40.3899 18.5217 40.3899 18.0473C40.3899 17.5729 40.0049 17.1879 39.5306 17.1879C39.0562 17.1879 38.6712 17.5729 38.6712 18.0473C38.6712 18.5225 38.2871 18.9067 37.8118 18.9067C37.3366 18.9067 36.9524 18.5225 36.9524 18.0473C36.9524 16.6259 38.1092 15.4692 39.5306 15.4692C40.952 15.4692 42.1087 16.6259 42.1087 18.0473C42.1087 19.4687 40.952 20.6254 39.5306 20.6254Z" fill="#059CAF"/>
<path d="M10.3135 52.4224C9.83829 52.4224 9.45415 52.0383 9.45415 51.563V39.5292C9.45415 39.054 9.83829 38.6698 10.3135 38.6698C10.7888 38.6698 11.1729 39.054 11.1729 39.5292V51.563C11.1729 52.0383 10.7888 52.4224 10.3135 52.4224Z" fill="#059CAF"/>
<path d="M13.751 52.4224C13.2758 52.4224 12.8917 52.0383 12.8917 51.563V39.5292C12.8917 39.054 13.2758 38.6698 13.751 38.6698C14.2263 38.6698 14.6104 39.054 14.6104 39.5292V51.563C14.6104 52.0383 14.2263 52.4224 13.751 52.4224Z" fill="#059CAF"/>
<path d="M20.626 52.4224C20.1508 52.4224 19.7667 52.0383 19.7667 51.563V39.5292C19.7667 39.054 20.1508 38.6698 20.626 38.6698C21.1013 38.6698 21.4854 39.054 21.4854 39.5292V51.563C21.4854 52.0383 21.1013 52.4224 20.626 52.4224Z" fill="#059CAF"/>
<path d="M24.0635 52.4224C23.5883 52.4224 23.2042 52.0383 23.2042 51.563V39.5292C23.2042 39.054 23.5883 38.6698 24.0635 38.6698C24.5388 38.6698 24.9229 39.054 24.9229 39.5292V51.563C24.9229 52.0383 24.5388 52.4224 24.0635 52.4224Z" fill="#059CAF"/>
<path d="M30.9385 52.4224C30.4633 52.4224 30.0792 52.0383 30.0792 51.563V39.5292C30.0792 39.054 30.4633 38.6698 30.9385 38.6698C31.4138 38.6698 31.7979 39.054 31.7979 39.5292V51.563C31.7979 52.0383 31.4138 52.4224 30.9385 52.4224Z" fill="#059CAF"/>
<path d="M34.376 52.4224C33.9008 52.4224 33.5167 52.0383 33.5167 51.563V39.5292C33.5167 39.054 33.9008 38.6698 34.376 38.6698C34.8513 38.6698 35.2354 39.054 35.2354 39.5292V51.563C35.2354 52.0383 34.8513 52.4224 34.376 52.4224Z" fill="#059CAF"/>
<path d="M38.6729 40.3886H6.01665C5.54142 40.3886 5.15728 40.0044 5.15728 39.5292C5.15728 39.054 5.54142 38.6698 6.01665 38.6698H38.6729C39.1481 38.6698 39.5323 39.054 39.5323 39.5292C39.5323 40.0044 39.1481 40.3886 38.6729 40.3886Z" fill="#059CAF"/>
<path d="M43.8283 17.1879H0.859544C0.38431 17.1879 0.000169272 16.8038 0.000169272 16.3286C0.000169272 15.8533 0.38431 15.4692 0.859544 15.4692H43.8283C44.3035 15.4692 44.6877 15.8533 44.6877 16.3286C44.6877 16.8038 44.3035 17.1879 43.8283 17.1879Z" fill="#059CAF"/>
<path d="M0.860404 17.1889C0.593138 17.1889 0.330169 17.0643 0.161732 16.8314C-0.114987 16.4464 -0.0281903 15.9093 0.357669 15.6317L21.8429 0.162955C22.2279 -0.112904 22.765 -0.0269664 23.0426 0.358893C23.3202 0.744752 23.2325 1.281 22.8467 1.55858L1.36142 17.0273C1.20931 17.1356 1.034 17.1889 0.860404 17.1889Z" fill="#059CAF"/>
<path d="M43.8283 17.1879C43.6547 17.1879 43.4785 17.1348 43.3264 17.0265L21.8429 1.55773C21.4579 1.28101 21.3702 0.743901 21.647 0.358042C21.9237 -0.0278172 22.4599 -0.115473 22.8467 0.162105L44.3302 15.6309C44.7152 15.9076 44.8028 16.4447 44.5261 16.8305C44.3577 17.0634 44.0956 17.1879 43.8283 17.1879Z" fill="#059CAF"/>
<path d="M40.2473 14.6098H4.44056C3.96533 14.6098 3.58118 14.2257 3.58118 13.7504C3.58118 13.2752 3.96533 12.8911 4.44056 12.8911H40.2473C40.7225 12.8911 41.1066 13.2752 41.1066 13.7504C41.1066 14.2257 40.7225 14.6098 40.2473 14.6098Z" fill="#059CAF"/>
<path d="M36.6671 12.0317H8.02072C7.54548 12.0317 7.16134 11.6475 7.16134 11.1723C7.16134 10.6971 7.54548 10.3129 8.02072 10.3129H36.6671C37.1424 10.3129 37.5265 10.6971 37.5265 11.1723C37.5265 11.6475 37.1424 12.0317 36.6671 12.0317Z" fill="#059CAF"/>
<path d="M33.0853 9.45356H11.6026C11.1274 9.45356 10.7432 9.06942 10.7432 8.59418C10.7432 8.11895 11.1274 7.73481 11.6026 7.73481H33.0853C33.5605 7.73481 33.9446 8.11895 33.9446 8.59418C33.9446 9.06942 33.5605 9.45356 33.0853 9.45356Z" fill="#059CAF"/>
<path d="M29.5051 6.87543H15.1827C14.7075 6.87543 14.3234 6.49129 14.3234 6.01605C14.3234 5.54082 14.7075 5.15668 15.1827 5.15668H29.5051C29.9803 5.15668 30.3645 5.54082 30.3645 6.01605C30.3645 6.49129 29.9803 6.87543 29.5051 6.87543Z" fill="#059CAF"/>
<path d="M25.9241 4.2973H18.7638C18.2885 4.2973 17.9044 3.91316 17.9044 3.43793C17.9044 2.96269 18.2885 2.57855 18.7638 2.57855H25.9241C26.3993 2.57855 26.7835 2.96269 26.7835 3.43793C26.7835 3.91316 26.3993 4.2973 25.9241 4.2973Z" fill="#059CAF"/>
<path d="M15.4698 20.622C14.0492 20.622 12.8934 19.4661 12.8934 18.0456C12.8934 16.625 14.0492 15.4692 15.4698 15.4692C16.8903 15.4692 18.047 16.625 18.047 18.0456C18.047 18.5208 17.6629 18.905 17.1877 18.905C16.7124 18.905 16.3283 18.5208 16.3283 18.0456C16.3283 17.5721 15.9433 17.1879 15.4698 17.1879C14.9963 17.1879 14.6121 17.5721 14.6121 18.0456C14.6121 18.5191 14.9963 18.9032 15.4698 18.9032C15.945 18.9032 16.3292 19.2874 16.3292 19.7626C16.3292 20.2379 15.945 20.622 15.4698 20.622Z" fill="#059CAF"/>
<path d="M29.2189 20.622C28.7437 20.622 28.3595 20.2379 28.3595 19.7626C28.3595 19.2874 28.7437 18.9032 29.2189 18.9032C29.6924 18.9032 30.0774 18.5191 30.0774 18.0456C30.0774 17.5721 29.6924 17.1879 29.2189 17.1879C28.7454 17.1879 28.3613 17.5721 28.3613 18.0456C28.3613 18.5208 27.9771 18.905 27.5019 18.905C27.0267 18.905 26.6425 18.5208 26.6425 18.0456C26.6425 16.625 27.7984 15.4692 29.2189 15.4692C30.6395 15.4692 31.7962 16.625 31.7962 18.0456C31.7962 19.4661 30.6395 20.622 29.2189 20.622Z" fill="#059CAF"/>
<path d="M17.1877 20.6204H15.4698C14.9945 20.6204 14.6104 20.2363 14.6104 19.761C14.6104 19.2858 14.9945 18.9016 15.4698 18.9016H17.1877C17.6629 18.9016 18.047 19.2858 18.047 19.761C18.047 20.2363 17.6629 20.6204 17.1877 20.6204Z" fill="#059CAF"/>
<path d="M17.1877 20.6254C16.7124 20.6254 16.3283 20.2413 16.3283 19.7661C16.3283 19.2908 16.7124 18.9067 17.1877 18.9067C18.6091 18.9067 19.7658 17.75 19.7658 16.3286C19.7658 15.8533 20.1499 15.4692 20.6252 15.4692C21.1004 15.4692 21.4845 15.8533 21.4845 16.3286C21.4845 18.6979 19.557 20.6254 17.1877 20.6254Z" fill="#059CAF"/>
<path d="M17.1877 20.6254C16.7124 20.6254 16.3283 20.2413 16.3283 19.7661C16.3283 19.2908 16.7124 18.9067 17.1877 18.9067C18.6091 18.9067 19.7658 17.75 19.7658 16.3286C19.7658 15.8533 20.1499 15.4692 20.6252 15.4692C21.1004 15.4692 21.4845 15.8533 21.4845 16.3286C21.4845 18.6979 19.557 20.6254 17.1877 20.6254Z" fill="#059CAF"/>
<path d="M29.2232 20.6204H27.5053C27.0301 20.6204 26.6459 20.2363 26.6459 19.761C26.6459 19.2858 27.0301 18.9016 27.5053 18.9016H29.2232C29.6984 18.9016 30.0826 19.2858 30.0826 19.761C30.0826 20.2363 29.6984 20.6204 29.2232 20.6204Z" fill="#059CAF"/>
<path d="M27.5053 20.6254C25.136 20.6254 23.2084 18.6979 23.2084 16.3286C23.2084 15.8533 23.5926 15.4692 24.0678 15.4692C24.5431 15.4692 24.9272 15.8533 24.9272 16.3286C24.9272 17.75 26.0839 18.9067 27.5053 18.9067C27.9806 18.9067 28.3647 19.2908 28.3647 19.7661C28.3647 20.2413 27.9806 20.6254 27.5053 20.6254Z" fill="#059CAF"/>
<path d="M27.5053 20.6204H17.1877C16.7124 20.6204 16.3283 20.2363 16.3283 19.761C16.3283 19.2858 16.7124 18.9016 17.1877 18.9016H27.5053C27.9806 18.9016 28.3647 19.2858 28.3647 19.761C28.3647 20.2363 27.9806 20.6204 27.5053 20.6204Z" fill="#059CAF"/>
</svg>
